<svg width="35" height="36" viewBox="0 0 35 36" fill="none" xmlns="http://www.w3.org/2000/svg">
<path d="M17.4996 0C7.83494 0 0 8.00603 0 17.8818C0 26.2676 5.65029 33.3044 13.2724 35.2371V23.3464H9.66401V17.8818H13.2724V15.5271C13.2724 9.44086 15.9681 6.61983 21.8158 6.61983C22.9245 6.61983 24.8376 6.84228 25.6202 7.06402V12.0173C25.2072 11.9729 24.4897 11.9507 23.5986 11.9507C20.7294 11.9507 19.6206 13.0616 19.6206 15.9491V17.8818H25.3367L24.3546 23.3464H19.6206V35.6327C28.2857 34.5633 35 27.0244 35 17.8818C34.9993 8.00603 27.1644 0 17.4996 0Z" fill="#F24F4C"/>
</svg>
