<svg width="35" height="25" viewBox="0 0 35 25" fill="none" xmlns="http://www.w3.org/2000/svg">
<path d="M2.38636 25H7.95455V12.1243L0 6.44391V22.7278C0 23.9832 1.0679 25 2.38636 25Z" fill="#F24F4C"/>
<path d="M27.0455 25H32.6136C33.9321 25 35 23.9832 35 22.7278V6.44392L27.0455 12.1244V25Z" fill="#F24F4C"/>
<path d="M27.0455 2.2783V12.1244L35 6.44392V3.41438C35 0.606355 31.6332 -0.99742 29.2727 0.687774L27.0455 2.2783Z" fill="#F24F4C"/>
<path fill-rule="evenodd" clip-rule="evenodd" d="M7.95455 12.1243V2.27827L17.5 9.09479L27.0455 2.2783V12.1244L17.5 18.9409L7.95455 12.1243Z" fill="#F24F4C"/>
<path d="M0 3.41438V6.44391L7.95455 12.1243V2.27827L5.72727 0.687774C3.36676 -0.99742 0 0.606355 0 3.41438Z" fill="#F24F4C"/>
</svg>
